<?xml version="1.0" encoding="UTF-8"?>
<!DOCTYPE svg PUBLIC "-//W3C//DTD SVG 1.1//EN" "http://www.w3.org/Graphics/SVG/1.1/DTD/svg11.dtd">
<svg xmlns="http://www.w3.org/2000/svg" version="1.1" width="512px" height="512px" style="shape-rendering:geometricPrecision; text-rendering:geometricPrecision; image-rendering:optimizeQuality; fill-rule:evenodd; clip-rule:evenodd" xmlns:xlink="http://www.w3.org/1999/xlink">
<g><path style="opacity:1" fill="#000000" d="M 203.5,37.5 C 206.85,37.335 210.183,37.5017 213.5,38C 214.022,38.5613 214.355,39.228 214.5,40C 181.431,80.8821 166.597,127.715 170,180.5C 180.709,257.53 221.875,311.03 293.5,341C 348.72,360.621 402.053,356.287 453.5,328C 455.134,327.506 456.801,327.34 458.5,327.5C 457.698,338.743 453.865,348.743 447,357.5C 435.204,372.963 421.704,386.796 406.5,399C 416.117,409.112 424.783,419.945 432.5,431.5C 431.21,432.408 429.877,432.241 428.5,431C 418.041,422.876 407.874,414.376 398,405.5C 377.685,419.445 355.519,429.445 331.5,435.5C 331.167,436.167 330.833,436.833 330.5,437.5C 332.468,443.37 333.801,449.37 334.5,455.5C 332.278,455.822 330.444,455.155 329,453.5C 327.196,448.42 325.196,443.42 323,438.5C 322.275,437.941 321.442,437.608 320.5,437.5C 301.278,440.79 281.945,441.79 262.5,440.5C 261.093,462.856 259.259,485.189 257,507.5C 256,511.5 255,511.5 254,507.5C 251.877,484.477 249.71,461.477 247.5,438.5C 229.099,436.145 211.432,431.145 194.5,423.5C 190.049,433.344 185.883,443.344 182,453.5C 179.891,456.28 178.058,456.113 176.5,453C 179.897,441.821 183.063,430.654 186,419.5C 168.272,410.139 151.938,398.806 137,385.5C 119.126,401.043 100.959,416.21 82.5,431C 81.1233,432.241 79.79,432.408 78.5,431.5C 81.8053,426.362 85.3053,421.362 89,416.5C 101.354,402.313 113.521,387.98 125.5,373.5C 111.948,358.736 100.614,342.403 91.5,324.5C 80.3414,327.943 69.1747,331.276 58,334.5C 54.8871,332.942 54.7204,331.109 57.5,329C 67.7548,324.804 78.0881,320.804 88.5,317C 80.9228,299.862 75.5895,282.029 72.5,263.5C 49.5335,261.292 26.5335,259.125 3.5,257C -0.5,256 -0.5,255 3.5,254C 26.1366,251.646 48.8033,249.813 71.5,248.5C 70.5089,236.767 70.1756,225.101 70.5,213.5C 71.7926,205.659 73.126,197.825 74.5,190C 69.2847,186.561 63.6181,183.894 57.5,182C 54.7204,179.891 54.8871,178.058 58,176.5C 64.0724,178.468 70.2391,180.134 76.5,181.5C 82.2611,157.232 91.9277,134.565 105.5,113.5C 95.739,102.743 86.739,91.4092 78.5,79.5C 79.79,78.5923 81.1233,78.759 82.5,80C 92.2912,87.4558 101.791,95.2891 111,103.5C 132.76,76.407 159.26,55.2403 190.5,40C 195.127,39.95 199.46,39.1167 203.5,37.5 Z M 178.5,65.5 C 167.432,87.3717 159.765,110.372 155.5,134.5C 148.317,127.483 140.984,120.65 133.5,114C 139.332,96.5077 149.999,82.841 165.5,73C 169.888,70.4765 174.222,67.9765 178.5,65.5 Z M 130.5,125.5 C 138.147,132.309 145.981,138.975 154,145.5C 154.985,147.366 155.485,149.366 155.5,151.5C 154.963,155.829 154.463,160.162 154,164.5C 145.667,156.167 137.333,147.833 129,139.5C 129.44,134.902 129.94,130.235 130.5,125.5 Z M 107.5,136.5 C 110.66,169.811 121.16,200.811 139,229.5C 146.275,241.107 153.942,252.44 162,263.5C 172.779,274.279 183.613,285.113 194.5,296C 212.5,309.333 230.5,322.667 248.5,336C 272.335,350.753 298.002,360.753 325.5,366C 258.405,383.389 199.072,369.389 147.5,324C 116.4,294.855 96.2335,259.355 87,217.5C 86.0754,200.381 88.4087,183.714 94,167.5C 97.9621,156.911 102.462,146.578 107.5,136.5 Z M 129.5,151.5 C 137.1,160.935 145.6,169.601 155,177.5C 155.917,185.165 156.75,192.832 157.5,200.5C 151.263,199.11 145.263,197.11 139.5,194.5C 133.176,180.87 129.843,166.537 129.5,151.5 Z M 144.5,205.5 C 149.69,207.563 155.023,209.23 160.5,210.5C 161.512,215.528 162.345,220.528 163,225.5C 159.333,223.833 155.667,222.167 152,220.5C 148.962,215.757 146.462,210.757 144.5,205.5 Z M 176.5,257.5 C 169.998,250.353 164.331,242.52 159.5,234C 162.187,233.463 164.687,233.963 167,235.5C 170.454,242.738 173.621,250.072 176.5,257.5 Z M 87.5,271.5 C 88.675,271.281 89.675,271.614 90.5,272.5C 95.3069,283.286 101.307,293.286 108.5,302.5C 105.539,304.564 102.372,306.231 99,307.5C 94.0585,295.843 90.2252,283.843 87.5,271.5 Z M 111.5,309.5 C 114.815,309.972 117.149,311.805 118.5,315C 113.901,316.652 109.235,317.652 104.5,318C 103.707,316.915 103.04,315.748 102.5,314.5C 105.433,312.538 108.433,310.871 111.5,309.5 Z M 122.5,321.5 C 123.552,321.351 124.552,321.517 125.5,322C 132.677,328.344 139.677,334.844 146.5,341.5C 141.5,347.167 136.167,352.5 130.5,357.5C 121.951,348.083 114.617,337.75 108.5,326.5C 113.216,324.818 117.882,323.151 122.5,321.5 Z M 153.5,346.5 C 157.291,349.118 160.957,351.951 164.5,355C 157.981,361.02 151.315,366.853 144.5,372.5C 141.5,370.167 138.833,367.5 136.5,364.5C 142.188,358.48 147.855,352.48 153.5,346.5 Z M 172.5,359.5 C 178.982,363.242 185.649,366.742 192.5,370C 193.022,370.561 193.355,371.228 193.5,372C 190.785,382.597 187.952,393.097 185,403.5C 172.666,396.256 161.166,387.923 150.5,378.5C 157.878,372.115 165.211,365.782 172.5,359.5 Z M 422.5,364.5 C 416.895,371.94 410.395,378.606 403,384.5C 400.194,381.694 397.36,378.86 394.5,376C 403.864,372.267 413.197,368.434 422.5,364.5 Z M 201.5,374.5 C 205.07,375.246 208.404,376.579 211.5,378.5C 207.101,388.967 201.934,398.967 196,408.5C 194.053,407.956 193.22,406.623 193.5,404.5C 195.862,394.385 198.528,384.385 201.5,374.5 Z M 381.5,378.5 C 383.199,378.34 384.866,378.506 386.5,379C 389,382.167 391.5,385.333 394,388.5C 393.628,390.92 392.295,392.92 390,394.5C 384.866,390.367 380.032,385.867 375.5,381C 377.611,380.155 379.611,379.322 381.5,378.5 Z M 219.5,381.5 C 226.598,383.087 233.598,385.087 240.5,387.5C 241.225,399.851 241.892,412.184 242.5,424.5C 228.862,422.231 215.862,418.065 203.5,412C 208.731,401.701 214.065,391.534 219.5,381.5 Z M 363.5,382.5 C 369.961,387.791 376.295,393.291 382.5,399C 366.371,409.32 349.037,416.82 330.5,421.5C 328.377,411.173 325.71,401.007 322.5,391C 336.356,388.584 350.023,385.75 363.5,382.5 Z M 247.5,388.5 C 253.349,389.611 259.182,390.611 265,391.5C 264.167,403.494 263.001,415.494 261.5,427.5C 257.158,427.261 252.824,426.927 248.5,426.5C 248.348,413.827 248.015,401.161 247.5,388.5 Z M 315.5,390.5 C 318.299,401.292 321.299,412.126 324.5,423C 321.91,425.289 320.077,424.789 319,421.5C 315.238,411.478 311.071,401.645 306.5,392C 309.695,391.819 312.695,391.319 315.5,390.5 Z M 274.5,391.5 C 282.524,391.566 290.524,392.066 298.5,393C 303.167,404 307.833,415 312.5,426C 298.241,428.661 283.908,429.495 269.5,428.5C 269.227,415.875 270.893,403.542 274.5,391.5 Z"/></g>
<g><path style="opacity:1" fill="#000000" d="M 350.5,49.5 C 352.017,49.5106 353.184,50.1772 354,51.5C 360.428,74.9278 375.262,90.0945 398.5,97C 399.833,97.6667 399.833,98.3333 398.5,99C 400.421,99.3603 402.088,100.194 403.5,101.5C 381.154,108.681 365.321,123.014 356,144.5C 355.023,146.74 354.523,149.073 354.5,151.5C 353.5,151.5 352.5,151.5 351.5,151.5C 348.707,139.58 343.04,129.246 334.5,120.5C 325.411,111.618 314.744,105.284 302.5,101.5C 328.065,93.0644 344.065,75.731 350.5,49.5 Z M 348.5,80.5 C 349.222,80.9175 349.722,81.5842 350,82.5C 350.499,87.8229 350.666,93.1563 350.5,98.5C 344.794,98.8288 339.128,98.4954 333.5,97.5C 339.662,92.8308 344.662,87.1641 348.5,80.5 Z M 358.5,104.5 C 363.844,104.334 369.177,104.501 374.5,105C 367.052,108.782 361.218,114.282 357,121.5C 355.886,119.03 355.386,116.364 355.5,113.5C 355.406,109.97 356.406,106.97 358.5,104.5 Z"/></g>
<g><path style="opacity:1" fill="#000000" d="M 258.5,150.5 C 259.5,150.5 260.5,150.5 261.5,150.5C 265.193,165.527 274.527,174.86 289.5,178.5C 289.5,179.5 289.5,180.5 289.5,181.5C 274.527,185.14 265.193,194.473 261.5,209.5C 260.5,209.5 259.5,209.5 258.5,209.5C 254.833,194.5 245.5,185.167 230.5,181.5C 230.5,180.5 230.5,179.5 230.5,178.5C 245.487,174.846 254.821,165.513 258.5,150.5 Z"/></g>
<g><path style="opacity:1" fill="#000000" d="M 356.5,187.5 C 357.525,187.897 357.692,188.563 357,189.5C 356.536,188.906 356.369,188.239 356.5,187.5 Z"/></g>
</svg>
