<?xml version="1.0" encoding="UTF-8"?>
<!-- Generator: visioncortex VTracer 0.6.12 -->
<svg version="1.1" xmlns="http://www.w3.org/2000/svg" width="512" height="512">
<path d="M0 0 C0.99 0.33 1.98 0.66 3 1 C3.963 5.224 4.339 9.435 4.648 13.746 C4.766 15.308 4.884 16.869 5.002 18.43 C5.063 19.247 5.124 20.064 5.186 20.906 C6.351 36.53 7.732 52.116 9.352 67.699 C9.568 69.799 9.785 71.9 10 74 C10.101 74.972 10.202 75.944 10.305 76.945 C10.873 82.714 11.13 88.393 11.062 94.188 C11.058 94.949 11.053 95.71 11.049 96.494 C11.037 98.329 11.019 100.165 11 102 C10.092 101.838 9.185 101.675 8.25 101.508 C5.755 101.118 3.509 100.865 1 100.875 C0.381 100.872 -0.238 100.87 -0.875 100.867 C-3.623 101.039 -6.288 101.535 -9 102 C-9.181 91.407 -8.663 81.042 -7.688 70.5 C-7.551 68.975 -7.415 67.449 -7.28 65.924 C-6.864 61.282 -6.434 56.641 -6 52 C-5.933 51.277 -5.865 50.555 -5.796 49.811 C-4.897 40.204 -3.959 30.601 -3 21 C-2.898 19.961 -2.796 18.923 -2.691 17.853 C-2.423 15.131 -2.15 12.409 -1.875 9.688 C-1.8 8.917 -1.724 8.146 -1.646 7.352 C-1.116 2.231 -1.116 2.231 0 0 Z " fill="#000000" transform="translate(254,1)"/>
<path d="M0 0 C3.055 2.576 4.228 5.429 5.75 9.082 C6.276 10.326 6.802 11.57 7.327 12.814 C7.464 13.14 7.464 13.14 8.153 14.791 C13.537 27.649 19.372 40.189 25.76 52.584 C27.726 56.415 29.643 60.27 31.562 64.125 C32.189 65.378 32.815 66.63 33.441 67.883 C33.956 68.911 34.47 69.94 35 71 C35.401 71.719 35.802 72.439 36.215 73.18 C37 75 37 75 37 79 C36.385 79.193 35.77 79.387 35.137 79.586 C34.733 79.716 34.733 79.716 32.688 80.375 C31.887 80.63 31.086 80.885 30.262 81.148 C28 82 28 82 25 84 C18.498 64.05 12.075 44.085 6 24 C5.867 23.565 5.867 23.565 5.195 21.362 C4.478 19.014 3.769 16.664 3.062 14.312 C2.682 13.051 2.302 11.789 1.91 10.488 C0.991 6.966 0.44 3.607 0 0 Z " fill="#000000" transform="translate(178,58)"/>
<path d="M0 0 C0.66 0 1.32 0 2 0 C0.217 9.147 -2.06 17.924 -4.93 26.793 C-6.042 30.234 -7.133 33.681 -8.223 37.129 C-8.449 37.845 -8.676 38.561 -8.909 39.298 C-12.024 49.183 -14.895 59.14 -17.776 69.095 C-17.977 69.788 -18.179 70.482 -18.387 71.196 C-18.931 73.07 -19.473 74.944 -20.014 76.819 C-20.882 79.619 -21.864 82.3 -23 85 C-23.66 84.381 -24.32 83.762 -25 83.125 C-28.704 80.501 -31.579 79.899 -36 79 C-34.644 74.513 -32.838 70.655 -30.562 66.562 C-21.87 50.556 -14.415 34.063 -7.704 17.136 C-5.374 11.27 -2.929 5.592 0 0 Z " fill="#000000" transform="translate(332,58)"/>
<path d="M0 0 C5.095 1.564 8.613 4.701 12.625 8.062 C14.056 9.246 15.487 10.43 16.918 11.613 C17.615 12.193 18.311 12.772 19.029 13.37 C20.732 14.778 22.447 16.167 24.176 17.543 C29.407 21.724 34.218 26.094 38.895 30.887 C41.434 33.436 44.107 35.778 46.836 38.121 C49.429 40.373 51.964 42.684 54.5 45 C57.695 47.918 60.908 50.803 64.188 53.625 C67.627 56.609 70.811 59.795 74.008 63.035 C77.2 66.183 80.607 69.072 84 72 C101.587 87.288 101.587 87.288 103 94 C102.938 97.125 102.938 97.125 102 100 C99.246 102.44 97.744 103.016 94.062 102.938 C88.075 101.105 83.884 97.141 79.562 92.75 C79.084 92.265 78.606 91.779 78.114 91.28 C74.87 87.962 71.76 84.554 68.742 81.031 C63.602 75.038 58.299 69.236 52.672 63.699 C50.293 61.282 48.09 58.727 45.875 56.16 C42.31 52.053 38.644 48.037 35 44 C32.766 41.514 30.532 39.028 28.301 36.539 C26.773 34.853 25.228 33.18 23.668 31.523 C16.151 23.485 9.583 14.808 3 6 C2.724 5.652 2.724 5.652 1.326 3.892 C0 2 0 2 0 0 Z " fill="#000000" transform="translate(80,80)"/>
<path d="M0 0 C-1.564 5.095 -4.701 8.613 -8.062 12.625 C-9.246 14.056 -10.43 15.487 -11.613 16.918 C-12.193 17.615 -12.772 18.311 -13.37 19.029 C-14.778 20.732 -16.167 22.447 -17.543 24.176 C-21.724 29.407 -26.094 34.218 -30.887 38.895 C-33.436 41.434 -35.778 44.107 -38.121 46.836 C-40.373 49.429 -42.684 51.964 -45 54.5 C-47.918 57.695 -50.803 60.908 -53.625 64.188 C-56.609 67.627 -59.795 70.811 -63.035 74.008 C-66.183 77.2 -69.072 80.607 -72 84 C-87.288 101.587 -87.288 101.587 -94 103 C-97.125 102.938 -97.125 102.938 -100 102 C-102.44 99.246 -103.016 97.744 -102.938 94.062 C-101.105 88.075 -97.141 83.884 -92.75 79.562 C-92.265 79.084 -91.779 78.606 -91.28 78.114 C-87.962 74.87 -84.554 71.76 -81.031 68.742 C-75.038 63.602 -69.236 58.299 -63.699 52.672 C-61.282 50.293 -58.727 48.09 -56.16 45.875 C-52.053 42.31 -48.037 38.644 -44 35 C-41.514 32.766 -39.028 30.532 -36.539 28.301 C-34.853 26.773 -33.18 25.228 -31.523 23.668 C-23.485 16.151 -14.808 9.583 -6 3 C-5.652 2.724 -5.652 2.724 -3.892 1.326 C-2 0 -2 0 0 0 Z " fill="#000000" transform="translate(432,80)"/>
<path d="M0 0 C4.03 3.322 7.01 6.484 8.758 11.508 C8.945 14.383 8.945 14.383 8.758 16.508 C4.859 15.93 2.746 13.973 -0.242 11.508 C-4.995 8.65 -9.854 8.772 -15.242 9.508 C-18.501 10.836 -21.306 12.589 -24.242 14.508 C-25.567 15.192 -26.898 15.864 -28.242 16.508 C-29.168 13.993 -29.366 12.842 -28.422 10.289 C-24.623 3.646 -20.802 -0.571 -13.414 -3.07 C-8.389 -4.046 -4.211 -2.802 0 0 Z " fill="#000000" transform="translate(265.2421875,110.4921875)"/>
<path d="M0 0 C3.434 2 6.212 4.424 8 8 C8.563 12.612 8.404 16.127 6.438 20.375 C3.108 23.96 -0.063 25.866 -5.055 26.094 C-9.821 25.734 -12.702 24.395 -16 21 C-18.498 16.767 -18.954 12.81 -18 8 C-13.566 0.669 -8.407 -1.368 0 0 Z " fill="#000000" transform="translate(261,128)"/>
<path d="M0 0 C4.074 0.849 5.544 2.302 8 5.625 C8.716 9.443 8.291 11.09 6.438 14.5 C4 16.625 4 16.625 0.562 17.188 C-3.593 16.531 -5.281 15.838 -8 12.625 C-8.625 9.188 -8.625 9.188 -8 5.625 C-5.554 2.244 -4.107 0.856 0 0 Z " fill="#000000" transform="translate(214,140.375)"/>
<path d="M0 0 C4.039 0.841 5.491 2.399 8 5.625 C8.878 8.196 9.017 10.059 8.938 12.75 C7.385 15.855 5.179 16.485 2 17.625 C-1.965 17.625 -3.448 17.133 -6.375 14.438 C-8.325 11.062 -8.719 9.458 -8 5.625 C-5.544 2.302 -4.074 0.849 0 0 Z " fill="#000000" transform="translate(298,140.375)"/>
<path d="M0 0 C3.595 3.032 6.918 6.303 10.239 9.629 C10.891 10.21 11.543 10.792 12.215 11.391 C27.447 25.197 36.139 48.641 37.365 68.697 C38.245 92.649 32.293 117.353 16.039 135.66 C13.825 138.039 11.538 140.333 9.239 142.629 C8.657 143.281 8.076 143.933 7.477 144.605 C-6.329 159.837 -29.773 168.529 -49.83 169.755 C-75.132 170.684 -99.61 163.859 -118.761 146.629 C-119.239 146.2 -119.718 145.771 -120.21 145.329 C-138.008 129.127 -149.408 106.763 -150.888 82.561 C-151.767 58.609 -145.816 33.905 -129.561 15.597 C-127.348 13.219 -125.06 10.925 -122.761 8.629 C-122.18 7.977 -121.598 7.324 -121 6.652 C-91.36 -26.048 -33.455 -26.044 0 0 Z M-115.761 18.629 C-116.091 19.289 -116.421 19.949 -116.761 20.629 C-113.759 19.194 -110.906 17.554 -108.042 15.862 C-89.504 4.978 -70.505 0.577 -49.074 4.566 C-35.053 8.436 -23.158 16.703 -12.761 26.629 C-12.127 27.233 -11.493 27.838 -10.839 28.461 C-1.091 38.787 4.388 55.593 4.239 69.629 C3.195 86.631 -2.395 102.37 -15.261 113.941 C-26.064 122.435 -39.994 127.352 -53.824 126.504 C-66.16 124.75 -76.829 118.845 -84.699 109.129 C-91.574 99.582 -93.714 91.419 -92.761 79.629 C-90.891 71.676 -86.346 64.302 -79.953 59.18 C-74.309 55.836 -68.137 55.781 -61.761 56.629 C-55.267 58.6 -51.949 62.148 -48.386 67.816 C-47.385 72.321 -48.244 76.311 -49.761 80.629 C-52.5 84.031 -55.019 84.877 -59.199 85.566 C-63.546 85.834 -66.274 85.452 -69.761 82.629 C-71.127 79.707 -72.013 76.761 -72.761 73.629 C-77.684 78.393 -77.684 78.393 -77.964 82.895 C-77.98 84.209 -77.995 85.524 -78.011 86.879 C-78.024 87.531 -78.024 87.531 -78.089 90.832 C-77.576 96.771 -74.945 101.445 -70.761 105.629 C-60.466 112.042 -51.798 115.59 -39.593 112.941 C-26.892 109.078 -20.03 101.716 -13.441 90.352 C-7.077 78.072 -7.041 67.582 -11.108 54.562 C-15.9 40.381 -24.147 31.31 -37.307 24.618 C-52.977 17.014 -69.761 13.656 -86.73 19.282 C-108.562 27.408 -123.797 42.641 -133.699 63.629 C-138.812 74.999 -138.434 89.821 -134.699 101.566 C-125.741 124.646 -110.437 141.491 -87.761 151.629 C-68.508 159.427 -45.891 159.787 -26.671 151.755 C-18.81 148.222 -11.3 144.297 -4.761 138.629 C-3.976 137.997 -3.191 137.366 -2.382 136.715 C13.898 123.045 23.024 102.722 25.114 81.754 C26.157 58.63 18.694 36.878 3.114 19.633 C-12.969 2.518 -32.844 -4.403 -55.761 -6.371 C-78.819 -6.371 -99.194 2.921 -115.761 18.629 Z " fill="#000000" transform="translate(312.76123046875,180.37109375)"/>
<path d="M0 0 C9.924 1.934 19.438 4.529 29.062 7.625 C30.448 8.065 31.833 8.505 33.219 8.944 C35.351 9.619 37.483 10.295 39.614 10.974 C44.473 12.521 49.339 14.044 54.211 15.551 C54.867 15.754 55.523 15.956 56.198 16.165 C59.306 17.126 62.414 18.084 65.522 19.043 C71.707 20.958 77.867 22.925 84 25 C83.361 26.052 82.721 27.104 82.062 28.188 C80.382 31.108 79.41 33.617 79 37 C74.146 36.46 70.797 35.024 66.562 32.625 C50.398 23.72 33.596 16.244 16.516 9.289 C10.941 7.009 5.465 4.531 0 2 C0 1.34 0 0.68 0 0 Z " fill="#000000" transform="translate(58,178)"/>
<path d="M0 0 C-3.125 2.577 -6.203 4.044 -9.961 5.531 C-11.144 6.007 -12.327 6.482 -13.546 6.972 C-14.171 7.221 -14.795 7.469 -15.439 7.726 C-28.142 12.804 -40.42 18.438 -52.568 24.744 C-56.4 26.723 -60.263 28.642 -64.125 30.562 C-65.378 31.188 -66.63 31.815 -67.883 32.441 C-68.911 32.956 -69.94 33.47 -71 34 C-71.719 34.401 -72.439 34.802 -73.18 35.215 C-75 36 -75 36 -79 36 C-79.193 35.385 -79.387 34.77 -79.586 34.137 C-79.846 33.328 -80.107 32.52 -80.375 31.688 C-80.63 30.887 -80.885 30.086 -81.148 29.262 C-82 27 -82 27 -84 24 C-64.051 17.498 -44.09 11.057 -24 5 C-23.119 4.734 -22.238 4.469 -21.33 4.195 C-18.95 3.48 -16.57 2.769 -14.188 2.062 C-13.518 1.863 -12.848 1.663 -12.158 1.458 C-2.66 -1.33 -2.66 -1.33 0 0 Z " fill="#000000" transform="translate(454,179)"/>
<path d="M0 0 C3.438 0.625 3.438 0.625 5.875 2.688 C7.839 6.379 8.112 8.5 7.438 12.625 C4.889 15.549 3.242 16.474 -0.562 17.188 C-4.666 16.418 -6.102 14.954 -8.562 11.625 C-9.188 8.625 -9.188 8.625 -8.562 5.625 C-5.93 1.956 -4.474 0.785 0 0 Z " fill="#000000" transform="translate(149.5625,205.375)"/>
<path d="M0 0 C4.474 0.785 5.93 1.956 8.562 5.625 C9.188 8.625 9.188 8.625 8.562 11.625 C6.102 14.954 4.666 16.418 0.562 17.188 C-3.242 16.474 -4.889 15.549 -7.438 12.625 C-8.112 8.5 -7.839 6.379 -5.875 2.688 C-3.438 0.625 -3.438 0.625 0 0 Z " fill="#000000" transform="translate(362.4375,205.375)"/>
<path d="M0 0 C-0.626 3.175 -1.734 5.424 -3.5 8.125 C-7.032 13.567 -7.856 17.459 -7 24 C-5.307 28.187 -3.197 31.803 0 35 C0 35.99 0 36.98 0 38 C-6.472 37.73 -10.342 35.466 -15 31 C-18.8 26.636 -19.715 22.212 -19.438 16.488 C-18.308 10.067 -14.683 6.203 -9.5 2.5 C-6.161 0.29 -4.002 -0.282 0 0 Z " fill="#000000" transform="translate(126,237)"/>
<path d="M0 0 C6.478 0.617 10.158 3.2 14.75 7.688 C17.629 11.399 18.817 15.325 19 20 C17.892 26.273 14.363 31.447 9.297 35.293 C6.396 37.14 4.523 38.045 1.062 37.75 C0.382 37.502 -0.299 37.255 -1 37 C-0.794 36.66 -0.794 36.66 0.25 34.938 C0.539 34.453 0.539 34.453 2 32 C2.701 30.886 3.402 29.772 4.125 28.625 C6.472 24.42 7.532 20.648 6.559 15.805 C4.958 10.408 2.467 6.404 -1 2 C-0.67 1.34 -0.34 0.68 0 0 Z " fill="#000000" transform="translate(385,237)"/>
<path d="M0 0 C4.076 1.887 5.639 3.394 7.938 7.25 C9.267 11.944 9.146 14.262 8 19 C5.761 22.551 3.828 24.387 0 26 C-4.007 26.77 -7.548 26.878 -11.105 24.727 C-16.713 19.986 -16.713 19.986 -17.309 15.863 C-17.559 10.903 -17.429 7.812 -14.125 3.938 C-9.848 -0.453 -5.959 -0.702 0 0 Z " fill="#000000" transform="translate(145,243)"/>
<path d="M0 0 C3.925 2.308 6.551 4.653 8 9 C8.345 14.352 8.488 17.67 5 22 C2.041 25.22 -0.154 26.291 -4.438 26.5 C-8.954 26.267 -11.627 25.132 -15 22 C-18.252 16.545 -18.448 12.984 -17 7 C-12.907 0.508 -7.45 -1.465 0 0 Z " fill="#000000" transform="translate(376,243)"/>
<path d="M0 0 C-0.042 0.429 -0.042 0.429 -0.254 2.598 C-0.356 3.741 -0.458 4.884 -0.562 6.062 C-0.667 7.188 -0.771 8.313 -0.879 9.473 C-1.004 13.118 -0.557 16.403 0 20 C-11.192 20.187 -22.171 19.658 -33.312 18.625 C-34.869 18.486 -36.425 18.347 -37.982 18.209 C-46.409 17.455 -54.83 16.646 -63.239 15.7 C-67.636 15.215 -72.033 14.833 -76.445 14.504 C-77.572 14.42 -78.698 14.335 -79.859 14.248 C-82.061 14.087 -84.263 13.932 -86.465 13.785 C-91.918 13.387 -96.815 12.758 -102 11 C-101.67 10.01 -101.34 9.02 -101 8 C-90.3 6.887 -79.599 5.864 -68.875 5 C-61.882 4.435 -54.907 3.809 -47.938 3 C-31.969 1.165 -16.089 -0.42 0 0 Z " fill="#000000" transform="translate(102,246)"/>
<path d="M0 0 C11.365 -0.176 22.502 0.281 33.812 1.375 C35.314 1.514 36.815 1.653 38.316 1.791 C46.848 2.58 55.378 3.41 63.9 4.3 C68.361 4.761 72.822 5.152 77.293 5.496 C78.376 5.58 79.458 5.665 80.574 5.752 C82.673 5.913 84.772 6.067 86.872 6.215 C92.183 6.623 96.943 7.307 102 9 C101.67 9.99 101.34 10.98 101 12 C90.3 13.113 79.599 14.136 68.875 15 C61.882 15.565 54.907 16.191 47.938 17 C31.969 18.835 16.089 20.42 0 20 C0.081 19.546 0.081 19.546 0.492 17.25 C0.882 14.755 1.135 12.509 1.125 10 C1.128 9.381 1.13 8.762 1.133 8.125 C0.961 5.377 0.465 2.712 0 0 Z " fill="#000000" transform="translate(408,246)"/>
<path d="M0 0 C3.805 0.713 5.451 1.639 8 4.562 C8.675 8.687 8.401 10.808 6.438 14.5 C4 16.562 4 16.562 0.562 17.188 C-3.911 16.403 -5.368 15.232 -8 11.562 C-8.625 8.562 -8.625 8.562 -8 5.562 C-5.54 2.234 -4.104 0.769 0 0 Z " fill="#000000" transform="translate(149,289.4375)"/>
<path d="M0 0 C3.323 2.456 4.776 3.926 5.625 8 C4.769 12.107 3.381 13.554 0 16 C-3.562 16.625 -3.562 16.625 -7 16 C-10.213 13.281 -10.906 11.593 -11.562 7.438 C-11 4 -11 4 -8.875 1.562 C-5.465 -0.291 -3.818 -0.716 0 0 Z " fill="#000000" transform="translate(366,290)"/>
<path d="M0 0 C0.193 0.615 0.387 1.23 0.586 1.863 C0.716 2.267 0.716 2.267 1.375 4.312 C1.63 5.113 1.885 5.914 2.148 6.738 C3 9 3 9 5 12 C-14.95 18.502 -34.915 24.925 -55 31 C-55.87 31.266 -56.741 31.531 -57.638 31.805 C-59.986 32.522 -62.336 33.231 -64.688 33.938 C-65.318 34.128 -65.318 34.128 -68.512 35.09 C-72.034 36.009 -75.393 36.56 -79 37 C-79 36.34 -79 35.68 -79 35 C-72.815 32.133 -66.603 29.403 -60.275 26.867 C-48.38 22.077 -36.836 16.676 -25.312 11.062 C-24.538 10.686 -23.764 10.309 -22.966 9.922 C-20.743 8.838 -18.521 7.75 -16.301 6.66 C-15.637 6.335 -14.974 6.011 -14.29 5.676 C-11.535 4.315 -8.885 2.927 -6.294 1.271 C-4 0 -4 0 0 0 Z " fill="#000000" transform="translate(137,297)"/>
<path d="M0 0 C4.854 0.54 8.203 1.976 12.438 4.375 C28.683 13.321 45.612 20.824 62.684 28.028 C63.811 28.504 64.937 28.979 66.098 29.469 C66.595 29.677 66.595 29.677 69.114 30.732 C77.766 34.532 77.766 34.532 79 37 C69.076 35.066 59.562 32.471 49.938 29.375 C48.552 28.935 47.167 28.495 45.781 28.056 C43.649 27.381 41.517 26.705 39.386 26.026 C34.527 24.479 29.661 22.956 24.789 21.449 C24.133 21.246 23.477 21.044 22.802 20.835 C19.694 19.874 16.586 18.916 13.478 17.957 C7.293 16.042 1.133 14.075 -5 12 C-4.361 10.948 -3.721 9.896 -3.062 8.812 C-1.382 5.892 -0.41 3.383 0 0 Z " fill="#000000" transform="translate(375,297)"/>
<path d="M0 0 C2.44 2.754 3.016 4.256 2.938 7.938 C1.105 13.925 -2.859 18.116 -7.25 22.438 C-7.735 22.916 -8.221 23.394 -8.72 23.886 C-12.038 27.13 -15.446 30.24 -18.969 33.258 C-24.962 38.398 -30.764 43.701 -36.301 49.328 C-38.718 51.707 -41.273 53.91 -43.84 56.125 C-47.947 59.69 -51.963 63.356 -56 67 C-58.486 69.234 -60.972 71.468 -63.461 73.699 C-65.147 75.227 -66.82 76.772 -68.477 78.332 C-76.515 85.849 -85.192 92.417 -94 99 C-94.348 99.276 -94.348 99.276 -96.108 100.674 C-98 102 -98 102 -100 102 C-98.436 96.905 -95.299 93.387 -91.938 89.375 C-90.754 87.944 -89.57 86.513 -88.387 85.082 C-88.097 84.734 -88.097 84.734 -86.63 82.971 C-85.222 81.268 -83.833 79.553 -82.457 77.824 C-78.276 72.593 -73.906 67.782 -69.113 63.105 C-66.564 60.566 -64.222 57.893 -61.879 55.164 C-59.627 52.571 -57.316 50.036 -55 47.5 C-52.082 44.305 -49.197 41.092 -46.375 37.812 C-43.391 34.373 -40.205 31.189 -36.965 27.992 C-33.817 24.8 -30.928 21.393 -28 18 C-9.625 -3.138 -9.625 -3.138 0 0 Z " fill="#000000" transform="translate(180,330)"/>
<path d="M0 0 C4.359 2.645 7.866 5.622 11.438 9.25 C11.916 9.735 12.394 10.221 12.886 10.72 C16.13 14.038 19.24 17.446 22.258 20.969 C27.398 26.962 32.701 32.764 38.328 38.301 C40.707 40.718 42.91 43.273 45.125 45.84 C48.69 49.947 52.356 53.963 56 58 C58.234 60.486 60.468 62.972 62.699 65.461 C64.227 67.147 65.772 68.82 67.332 70.477 C74.849 78.515 81.417 87.192 88 96 C88.276 96.348 88.276 96.348 89.674 98.108 C91 100 91 100 91 102 C85.905 100.436 82.387 97.299 78.375 93.938 C76.944 92.754 75.513 91.57 74.082 90.387 C73.385 89.807 72.689 89.228 71.971 88.63 C70.268 87.222 68.553 85.833 66.824 84.457 C61.593 80.276 56.782 75.906 52.105 71.113 C49.566 68.564 46.893 66.222 44.164 63.879 C41.571 61.627 39.036 59.316 36.5 57 C33.305 54.082 30.092 51.197 26.812 48.375 C23.373 45.391 20.189 42.205 16.992 38.965 C13.8 35.817 10.393 32.928 7 30 C-10.587 14.712 -10.587 14.712 -12 8 C-11.938 4.875 -11.938 4.875 -11 2 C-7.273 -1.301 -4.674 -1.431 0 0 Z " fill="#000000" transform="translate(341,330)"/>
<path d="M0 0 C2.924 2.549 3.849 4.195 4.562 8 C3.793 12.104 2.329 13.54 -1 16 C-4 16.625 -4 16.625 -7 16 C-10.669 13.368 -11.84 11.911 -12.625 7.438 C-12 4 -12 4 -9.938 1.562 C-6.246 -0.401 -4.125 -0.675 0 0 Z " fill="#000000" transform="translate(218,355)"/>
<path d="M0 0 C4.155 0.656 5.844 1.35 8.562 4.562 C9.188 8 9.188 8 8.562 11.562 C6.117 14.944 4.67 16.332 0.562 17.188 C-3.512 16.339 -4.982 14.885 -7.438 11.562 C-8.153 7.744 -7.728 6.097 -5.875 2.688 C-3.438 0.562 -3.438 0.562 0 0 Z " fill="#000000" transform="translate(297.4375,354.4375)"/>
<path d="M0 0 C3.551 2.239 5.387 4.172 7 8 C7.77 12.007 7.878 15.548 5.727 19.105 C0.986 24.713 0.986 24.713 -3.137 25.309 C-8.097 25.559 -11.188 25.429 -15.062 22.125 C-18.161 19.107 -19.173 17.08 -19.312 12.75 C-19.237 8.084 -18.247 5.497 -15 2 C-9.545 -1.252 -5.984 -1.448 0 0 Z " fill="#000000" transform="translate(262,359)"/>
<path d="M0 0 C1.052 0.639 2.104 1.279 3.188 1.938 C6.108 3.618 8.617 4.59 12 5 C11.46 9.854 10.024 13.203 7.625 17.438 C-1.192 33.432 -8.61 50.149 -15.94 66.864 C-18.486 72.659 -21.107 78.371 -24 84 C-25.657 80.686 -23.996 77.363 -23.062 73.938 C-22.837 73.098 -22.612 72.258 -22.38 71.392 C-19.927 62.436 -17.062 53.618 -14.191 44.789 C-11.392 36.164 -8.727 27.498 -6.058 18.833 C-4.111 12.528 -2.116 6.249 0 0 Z " fill="#000000" transform="translate(203,370)"/>
<path d="M0 0 C2.057 3.086 2.975 5.639 4.102 9.16 C4.505 10.416 4.909 11.672 5.325 12.966 C5.759 14.332 6.192 15.697 6.625 17.062 C7.073 18.464 7.521 19.866 7.969 21.268 C12.08 34.148 16.08 47.061 20 60 C20.267 60.875 20.534 61.75 20.81 62.651 C21.525 64.995 22.233 67.341 22.938 69.688 C23.318 70.949 23.698 72.211 24.09 73.512 C25.009 77.034 25.56 80.393 26 84 C23 83 23 83 21.824 80.773 C21.449 79.793 21.074 78.814 20.688 77.805 C20.257 76.708 19.827 75.611 19.384 74.48 C18.927 73.291 18.471 72.101 18 70.875 C17.018 68.391 16.034 65.909 15.039 63.43 C14.913 63.116 14.913 63.116 14.277 61.528 C10.713 52.719 6.502 44.224 2.315 35.7 C-0.216 30.504 -2.654 25.262 -5.096 20.023 C-6.531 16.972 -7.947 14.083 -9.75 11.227 C-11 9 -11 9 -11 5 C-10.374 4.807 -9.747 4.613 -9.102 4.414 C-8.284 4.154 -7.467 3.893 -6.625 3.625 C-5.813 3.37 -5.001 3.115 -4.164 2.852 C-2 2 -2 2 0 0 Z " fill="#000000" transform="translate(308,370)"/>
<path d="M0 0 C2.081 0.996 4.039 2.026 5.973 3.289 C11.849 7.045 17.073 8.455 24 7 C26.576 5.671 28.756 4.206 31.027 2.41 C33.055 0.961 34.567 0.43 37 0 C36.437 7.038 34.194 10.755 29.312 15.75 C25.564 18.634 21.734 19.947 17 20 C10.179 18.528 5.814 15.778 2 10 C-1.108 4.82 -1.108 4.82 -0.688 1.625 C-0.461 1.089 -0.234 0.553 0 0 Z " fill="#000000" transform="translate(237,385)"/>
<path d="M0 0 C0.471 0.042 0.471 0.042 2.852 0.254 C3.474 0.305 3.474 0.305 6.625 0.562 C7.855 0.667 9.085 0.771 10.352 0.879 C13.769 0.992 16.653 0.613 20 0 C20.163 11.131 19.761 22.043 18.688 33.125 C18.552 34.59 18.416 36.055 18.282 37.521 C17.866 42.015 17.435 46.508 17 51 C16.965 51.361 16.965 51.361 16.789 53.19 C16.582 55.327 16.375 57.464 16.168 59.602 C16.101 60.293 16.034 60.984 15.965 61.695 C15.649 64.955 15.329 68.214 15.003 71.473 C14.297 78.596 13.737 85.703 13.366 92.853 C12.985 96.128 12.148 98.917 11 102 C10.34 102 9.68 102 9 102 C7.559 96.689 6.658 91.725 6.254 86.215 C6.198 85.488 6.143 84.762 6.085 84.014 C5.967 82.46 5.851 80.906 5.738 79.352 C5.438 75.225 5.115 71.099 4.793 66.973 C4.728 66.137 4.664 65.302 4.597 64.441 C3.764 53.798 2.705 43.178 1.648 32.555 C1.538 31.443 1.428 30.331 1.315 29.186 C1.111 27.118 0.904 25.051 0.695 22.984 C0.167 17.564 -0.112 12.259 -0.062 6.812 C-0.053 5.52 -0.044 4.227 -0.035 2.895 C-0.024 1.939 -0.012 0.984 0 0 Z " fill="#000000" transform="translate(245,409)"/>
</svg>
